<?xml version="1.0" standalone="no"?>
<!DOCTYPE svg PUBLIC "-//W3C//DTD SVG 20010904//EN"
 "http://www.w3.org/TR/2001/REC-SVG-20010904/DTD/svg10.dtd">
<svg version="1.0" xmlns="http://www.w3.org/2000/svg"
 width="512.000000pt" height="512.000000pt" viewBox="0 0 512.000000 512.000000"
 preserveAspectRatio="xMidYMid meet">
<metadata>
Created by potrace 1.14, written by Peter Selinger 2001-2017
</metadata>
<g transform="translate(0.000000,512.000000) scale(0.100000,-0.100000)"
fill="#000000" stroke="none">
<path d="M1170 5033 c-539 -60 -960 -442 -1067 -969 -17 -83 -18 -180 -18
-1504 0 -1571 -4 -1479 67 -1678 152 -432 539 -740 998 -792 114 -13 2706 -13
2820 0 358 41 674 236 874 540 83 126 141 268 173 427 17 82 18 184 18 1503 0
1324 -1 1421 -18 1504 -97 478 -448 836 -932 949 -89 21 -104 21 -1485 23
-767 0 -1411 -1 -1430 -3z m2668 -669 c197 -44 381 -191 475 -379 114 -227 98
-501 -41 -715 -20 -30 -182 -202 -361 -382 l-325 -328 300 -302 c166 -167 320
-327 343 -357 51 -66 103 -172 127 -261 27 -100 25 -274 -5 -370 -61 -198
-176 -342 -351 -438 -59 -33 -172 -69 -231 -75 -32 -4 -36 -2 -31 16 4 16 2
19 -13 13 -15 -5 -16 -4 -5 9 7 8 10 21 7 29 -4 10 -1 13 9 9 7 -3 14 -1 14 5
0 6 -6 12 -12 15 -7 2 -10 8 -6 12 4 4 16 2 25 -6 17 -13 17 -13 1 7 -14 16
-15 23 -6 32 13 13 21 75 9 68 -4 -3 -6 9 -6 25 0 17 7 34 15 39 13 8 13 10 1
10 -8 0 -11 3 -8 6 3 4 2 14 -3 23 -7 13 -1 23 26 44 19 16 34 33 33 40 0 8
-2 8 -6 -1 -4 -10 -8 -10 -21 0 -15 11 -15 11 -6 -2 9 -11 9 -18 0 -26 -10 -9
-12 -3 -12 26 1 28 4 36 13 29 7 -7 14 -6 19 2 4 8 3 9 -4 5 -7 -4 -12 -2 -12
3 0 6 9 16 19 23 15 9 17 16 10 29 -6 12 -5 20 1 24 8 5 7 11 -1 21 -8 10 -16
11 -33 3 -20 -10 -20 -9 -2 5 10 9 23 13 27 10 5 -3 9 0 9 5 0 6 -10 11 -22
11 -17 0 -19 3 -9 9 10 6 10 10 1 16 -8 5 -6 13 7 27 18 21 18 21 -12 15 -16
-3 -24 -4 -17 -1 6 3 9 10 6 16 -4 6 0 15 7 20 11 8 10 9 -3 4 -10 -3 -18 0
-18 5 0 7 -9 9 -21 6 -17 -4 -19 -3 -10 6 17 17 13 31 -4 17 -17 -14 -19 -7
-5 20 8 15 6 17 -10 13 -11 -3 -20 0 -20 6 0 6 3 10 8 10 18 -3 32 2 32 12 0
5 -4 7 -10 4 -5 -3 -10 1 -10 9 0 9 -5 16 -11 16 -5 0 -7 5 -3 11 4 7 -2 9
-16 7 -14 -2 -25 3 -27 12 -4 13 -3 13 6 0 9 -13 11 -13 11 3 0 9 -4 17 -10
17 -5 0 -10 4 -10 10 0 5 8 6 17 3 15 -6 16 -5 3 9 -13 14 -16 14 -23 2 -5 -8
-13 -12 -18 -8 -6 4 -4 13 7 25 9 11 14 22 11 26 -4 3 -7 1 -7 -5 0 -14 -46
-16 -55 -2 -3 5 -13 7 -23 4 -14 -5 -14 -4 -2 4 8 6 19 7 25 3 27 -22 55 2 31
26 -4 4 -6 1 -4 -7 2 -9 -3 -14 -12 -11 -8 2 -20 4 -27 5 -7 1 -16 6 -20 11
-5 4 -2 5 6 0 11 -6 13 -4 8 8 -4 11 -1 17 8 17 7 0 17 5 21 12 4 7 3 8 -4 4
-7 -4 -12 -2 -12 5 0 10 -3 10 -12 1 -7 -7 -18 -12 -26 -12 -7 0 -1 11 15 25
l28 25 -33 -5 c-22 -4 -31 -2 -27 5 7 11 -8 14 -19 3 -10 -11 -37 -12 -30 -2
3 5 10 7 15 4 8 -6 11 2 8 21 0 4 5 11 13 15 9 6 9 9 1 9 -6 0 -15 -5 -18 -10
-5 -8 -12 -7 -22 2 -8 6 -24 13 -35 15 -18 3 -19 1 -7 -14 12 -16 11 -16 -8 0
-13 12 -27 16 -35 11 -19 -12 -71 -11 -87 1 -11 7 -13 7 -7 -2 7 -13 2 -15
-29 -15 -30 0 -36 2 -29 14 5 7 3 8 -7 2 -8 -4 -27 -9 -43 -9 -16 0 -31 -6
-34 -13 -2 -7 -11 -5 -25 9 l-22 20 -17 -22 c-13 -15 -18 -17 -18 -7 0 17 -55
19 -79 4 -9 -6 -12 -5 -7 2 15 24 -164 -63 -239 -116 -27 -19 -213 -198 -413
-396 -199 -199 -366 -362 -371 -364 -4 -1 -4 21 1 50 31 188 47 534 30 647 -8
51 -33 63 -51 24 -6 -13 -16 -21 -22 -18 -6 4 -5 -2 3 -14 11 -18 10 -23 -6
-38 -18 -17 -18 -17 -7 5 7 12 8 22 2 22 -9 0 -25 -30 -23 -42 1 -5 -5 -8 -13
-8 -8 0 -15 5 -15 12 0 6 -3 9 -6 5 -3 -3 -2 -12 2 -19 15 -24 12 -36 -7 -31
-10 3 -16 10 -12 16 3 6 1 7 -6 3 -8 -5 -9 -12 -3 -19 6 -8 3 -22 -8 -39 -13
-22 -19 -25 -29 -15 -10 9 -12 9 -9 -3 2 -8 -2 -14 -8 -13 -8 2 -10 -6 -6 -20
5 -20 4 -21 -13 -7 -17 14 -17 14 -5 -7 8 -12 21 -20 32 -18 10 2 16 0 13 -6
-4 -5 -11 -7 -16 -4 -5 4 -9 1 -9 -4 0 -6 -9 -11 -21 -11 -11 0 -18 -4 -14 -9
3 -5 -4 -16 -15 -24 -11 -7 -17 -18 -12 -23 4 -4 -1 -2 -10 5 -15 11 -17 10
-13 -8 2 -12 -1 -21 -7 -21 -5 0 -7 -8 -4 -17 6 -17 5 -17 -7 -1 -8 10 -17 15
-20 11 -4 -3 -2 -12 4 -20 9 -10 8 -13 0 -13 -7 0 -9 -5 -6 -10 3 -5 0 -10 -7
-11 -7 0 -4 -4 7 -9 16 -7 16 -9 4 -9 -9 -1 -20 -8 -23 -17 -3 -9 -2 -12 5 -8
6 3 5 -3 -2 -14 -7 -12 -18 -18 -24 -14 -5 3 -4 -2 3 -11 8 -9 12 -22 9 -29
-2 -7 0 -21 5 -31 6 -11 5 -17 -2 -17 -6 0 -8 -5 -4 -12 5 -8 2 -9 -10 -5 -12
5 -15 3 -9 -6 10 -16 4 -50 -11 -59 -8 -6 -7 -8 3 -8 7 0 11 -6 8 -15 -4 -8
-2 -17 4 -21 6 -4 6 -11 -2 -21 -9 -10 -9 -17 -2 -21 10 -7 10 -39 0 -49 -3
-2 -13 -6 -24 -8 -10 -2 -19 -4 -21 -4 -1 -1 5 -12 14 -26 9 -15 13 -25 8 -24
-19 3 -34 -1 -34 -11 0 -5 8 -7 17 -3 15 5 16 4 5 -8 -11 -12 -15 -11 -28 5
-8 11 -14 15 -14 9 0 -7 7 -18 15 -27 20 -20 19 -26 -5 -21 -11 2 -20 -1 -20
-7 0 -15 -144 -3 -225 17 -33 9 -96 33 -140 54 -246 120 -395 357 -396 633 -1
155 35 279 116 403 22 35 175 197 359 383 l320 322 -331 333 c-359 361 -389
399 -441 554 -22 68 -26 95 -26 213 0 118 4 145 26 212 41 122 92 204 187 298
95 94 174 142 301 182 99 31 302 33 395 4 75 -23 186 -78 239 -119 23 -17 183
-172 356 -344 l315 -313 310 311 c305 305 380 372 480 422 138 69 318 88 483
51z m-1875 -2713 c3 -13 1 -18 -9 -14 -7 2 -10 11 -7 19 7 19 10 18 16 -5z
m1677 -71 c0 -5 -5 -10 -11 -10 -5 0 -7 5 -4 10 3 6 8 10 11 10 2 0 4 -4 4
-10z m-2029 -603 c-10 -9 -11 -8 -5 6 3 10 9 15 12 12 3 -3 0 -11 -7 -18z
m2149 -51 c0 -3 -4 -8 -10 -11 -5 -3 -10 -1 -10 4 0 6 5 11 10 11 6 0 10 -2
10 -4z m-39 -63 c-12 -20 -14 -14 -5 12 4 9 9 14 11 11 3 -2 0 -13 -6 -23z
m-2121 -7 c0 -3 -4 -8 -10 -11 -5 -3 -10 -1 -10 4 0 6 5 11 10 11 6 0 10 -2
10 -4z"/>
<path d="M2479 2846 c-147 -52 -230 -193 -199 -340 21 -101 111 -202 202 -227
236 -63 441 143 374 376 -23 75 -106 163 -180 188 -58 20 -146 21 -197 3z"/>
<path d="M3256 1832 c-3 -5 1 -9 9 -9 8 0 12 4 9 9 -3 4 -7 8 -9 8 -2 0 -6 -4
-9 -8z"/>
<path d="M3788 1403 c7 -3 16 -2 19 1 4 3 -2 6 -13 5 -11 0 -14 -3 -6 -6z"/>
<path d="M3825 1300 c-3 -5 -1 -10 4 -10 6 0 11 5 11 10 0 6 -2 10 -4 10 -3 0
-8 -4 -11 -10z"/>
<path d="M3766 1078 c3 -5 10 -6 15 -3 13 9 11 12 -6 12 -8 0 -12 -4 -9 -9z"/>
<path d="M3764 1005 c3 -21 16 -31 16 -12 0 9 -4 18 -9 21 -5 4 -8 -1 -7 -9z"/>
<path d="M3741 808 c-1 -23 15 -32 23 -12 3 8 2 13 -3 9 -5 -3 -12 1 -14 7 -4
8 -6 7 -6 -4z"/>
</g>
</svg>
